<?xml version="1.0" encoding="UTF-8"?>
<svg version="1.1" xmlns="http://www.w3.org/2000/svg" width="512" height="512">
<path d="M0 0 C0.83692383 0.00902344 1.67384766 0.01804688 2.53613281 0.02734375 C49.15955239 1.2729416 92.91046608 29.25132465 126.5625 59.4375 C127.0786084 59.89721191 127.5947168 60.35692383 128.12646484 60.83056641 C138.55634074 70.14378153 148.65883623 79.70927385 157.36328125 90.6796875 C159.63786417 93.5320064 162.00119993 96.29243759 164.375 99.0625 C174.31914351 110.99856045 182.93543756 123.91619599 190.5625 137.4375 C191.16143066 138.48381592 191.16143066 138.48381592 191.77246094 139.55126953 C203.16697457 159.61397484 210.70925769 180.68970033 214.5625 203.4375 C214.75730957 204.57566162 214.75730957 204.57566162 214.95605469 205.73681641 C216.78880373 217.07983884 216.7168267 228.40251803 216.48950195 239.86987305 C216.46376099 241.59717651 216.46376099 241.59717651 216.4375 243.359375 C216.41429687 244.38643555 216.39109375 245.41349609 216.3671875 246.47167969 C216.58505388 249.77998068 217.28766404 252.3816432 218.5625 255.4375 C222.38335953 257.83918313 226.14147781 257.83223412 230.5625 257.4375 C235.18699706 255.50166402 236.89978515 252.56041332 239.5625 248.4375 C241.375 246.5 241.375 246.5 243.5625 245.4375 C248.14481181 245.60115399 251.34293935 246.10462148 254.5625 249.4375 C255.32354059 252.21720811 255.85092099 254.73222186 256.25 257.5625 C256.36666016 258.284375 256.48332031 259.00625 256.60351562 259.75 C256.95426171 261.97733673 257.27533361 264.20091977 257.5625 266.4375 C257.64615814 267.08589844 257.72981628 267.73429687 257.81600952 268.40234375 C258.46963111 273.79844189 258.73515242 279.11388909 258.765625 284.546875 C258.77263931 285.38766602 258.77965363 286.22845703 258.78688049 287.09472656 C258.80428516 289.79237284 258.81073253 292.48979965 258.8125 295.1875 C258.81317474 296.10889771 258.81384949 297.03029541 258.81454468 297.97961426 C258.79895187 311.36261578 258.40923476 324.31474709 255.5625 337.4375 C255.39089355 338.28006348 255.21928711 339.12262695 255.04248047 339.99072266 C249.09318802 368.88652647 237.68578189 396.3454406 220.5625 420.4375 C219.81484375 421.49710937 219.0671875 422.55671875 218.296875 423.6484375 C206.85042708 439.33583555 193.84821082 453.4346264 178.5625 465.4375 C177.5194364 466.27201688 176.47647017 467.10665546 175.43359375 467.94140625 C168.15772856 473.7130997 160.66467525 478.87204994 152.5625 483.4375 C151.76618164 483.88883301 150.96986328 484.34016602 150.14941406 484.80517578 C129.48636009 496.38183319 107.773688 504.66041372 84.5625 509.4375 C83.8293457 509.59976074 83.09619141 509.76202148 82.34082031 509.92919922 C55.236225 515.73732679 23.47281616 514.63542861 -3.4375 508.4375 C-4.26572266 508.25558105 -5.09394531 508.07366211 -5.94726562 507.88623047 C-53.12466668 497.336368 -96.50926693 470.4530525 -126.4375 432.4375 C-127.21738281 431.48617188 -127.99726562 430.53484375 -128.80078125 429.5546875 C-155.81969509 395.85645684 -173.39599656 350.76367378 -173.640625 307.3984375 C-173.64754868 306.56238983 -173.65447235 305.72634216 -173.66160583 304.86495972 C-173.67879132 302.18075826 -173.68519209 299.49675387 -173.6875 296.8125 C-173.68883942 295.89964233 -173.69017883 294.98678467 -173.69155884 294.04626465 C-173.68810149 283.1949593 -173.54840452 272.46082501 -172.125 261.6875 C-172.00737305 260.79208496 -171.88974609 259.89666992 -171.76855469 258.97412109 C-170.97384971 253.85731858 -169.95765711 249.41762344 -165.6875 246.0625 C-162.20465062 245.09504184 -159.90983843 245.46280851 -156.4375 246.4375 C-151.85127275 251.10562417 -149.24572274 256.42304363 -146.375 262.25 C-141.26750671 272.34505066 -135.22136517 281.40418564 -128.4375 290.4375 C-128.64898682 289.53016113 -128.86047363 288.62282227 -129.07836914 287.68798828 C-131.09113408 278.48019424 -131.95117501 269.7737963 -131.875 260.3125 C-131.86993942 259.30802826 -131.86993942 259.30802826 -131.86477661 258.28326416 C-131.77802081 246.30670609 -130.61845203 234.99373325 -127.4375 223.4375 C-127.20675781 222.59638672 -126.97601563 221.75527344 -126.73828125 220.88867188 C-117.11011792 187.08821489 -96.42942591 148.13701685 -64.56347656 130.39404297 C-62.4715135 129.25762503 -60.36615486 128.15316908 -58.25 127.0625 C-57.58444092 126.71598389 -56.91888184 126.36946777 -56.2331543 126.01245117 C-51.9840334 123.90611709 -48.23862185 122.76634396 -43.4375 122.4375 C-41.4375 123.375 -41.4375 123.375 -40.4375 125.4375 C-40.61757176 128.91888745 -41.06417246 132.03891473 -41.9609375 135.3984375 C-44.05805693 143.33101971 -45.68576409 155.02511943 -41.9375 162.6875 C-38.13556602 166.86962737 -34.66410803 169.0943528 -28.9765625 169.69921875 C-23.16886083 169.52945516 -19.47962583 167.83282376 -15.37109375 163.765625 C2.82704814 141.85432689 11.84399136 109.57589341 9.5625 81.4375 C7.48363086 60.5906897 1.34247683 38.74728411 -11.4375 21.8125 C-14.64380251 17.53991549 -16.0020826 13.81701343 -15.4375 8.4375 C-12.3786053 1.03175495 -7.51497086 -0.09787508 0 0 Z " fill="#F55680" transform="translate(213.4375,-0.4375)"/>
<path d="M0 0 C14.7274695 3.11660143 30.59050578 9.99334587 42.328125 19.484375 C42.328125 20.144375 42.328125 20.804375 42.328125 21.484375 C43.05515625 21.74089844 43.7821875 21.99742187 44.53125 22.26171875 C69.87215968 33.33951865 92.03366244 67.70195806 101.8984375 92.53125 C106.65635374 105.31540012 107.9287807 117.98724512 108.64575195 131.5715332 C108.70851318 132.69648193 108.77127441 133.82143066 108.8359375 134.98046875 C108.88379395 135.99294678 108.93165039 137.0054248 108.98095703 138.04858398 C109.10467928 140.66110139 109.10467928 140.66110139 111.328125 142.484375 C114.01651885 142.75429406 116.61954436 142.57174857 119.328125 142.484375 C119.6375 141.68 119.946875 140.875625 120.265625 140.046875 C121.328125 137.484375 121.328125 137.484375 122.328125 136.484375 C124.703125 136.171875 124.703125 136.171875 127.328125 136.484375 C131.27434701 140.14872401 131.25739623 144.9198761 131.48925781 150.04858398 C131.52696179 153.57894749 131.55926296 157.10885989 131.56835938 160.6394043 C131.57796442 162.88434365 131.60898484 165.12832572 131.640625 167.37304688 C131.87957718 200.11130045 117.47781625 228.54002322 95.265625 251.984375 C72.99638465 273.75667275 42.55269639 285.64687708 11.578125 285.796875 C-9.97245909 285.51722427 -29.96740893 280.19867937 -48.671875 269.484375 C-49.27725098 269.14035645 -49.88262695 268.79633789 -50.50634766 268.44189453 C-60.01141123 262.94193193 -67.92299228 256.2281294 -75.671875 248.484375 C-76.54585937 247.63359375 -77.41984375 246.7828125 -78.3203125 245.90625 C-89.68677331 234.21708211 -97.34745725 219.78295888 -102.671875 204.484375 C-102.98640625 203.59878906 -103.3009375 202.71320313 -103.625 201.80078125 C-104.34597218 199.70501409 -105.02075645 197.60268067 -105.671875 195.484375 C-106.22875 193.751875 -106.22875 193.751875 -106.796875 191.984375 C-109.04012012 183.01139454 -108.85815911 173.85116894 -108.85717773 164.66357422 C-108.85937673 162.35756293 -108.87762348 160.0520216 -108.89648438 157.74609375 C-108.89941709 156.26041828 -108.9014027 154.77474057 -108.90234375 153.2890625 C-108.90952927 152.60971649 -108.91671478 151.93037048 -108.92411804 151.23043823 C-108.89880531 145.87333627 -108.59911495 140.41161495 -104.671875 136.484375 C-102.359375 135.859375 -102.359375 135.859375 -99.671875 136.484375 C-97.75722379 139.12348883 -96.25128774 141.64899309 -94.671875 144.484375 C-93.23968704 146.77961652 -91.8028149 149.0712578 -90.359375 151.359375 C-86.671875 157.23483711 -86.671875 157.23483711 -86.671875 159.484375 C-86.011875 159.484375 -85.351875 159.484375 -84.671875 159.484375 C-85.001875 158.494375 -85.331875 157.504375 -85.671875 156.484375 C-87.73241574 129.82808314 -80.91817902 106.38882088 -64.22265625 85.40625 C-57.38381279 77.54748483 -49.64966523 70.87682368 -39.671875 67.484375 C-38.351875 67.484375 -37.031875 67.484375 -35.671875 67.484375 C-35.58397577 72.14303401 -35.78264608 76.54550603 -36.359375 81.171875 C-36.70514186 84.68798305 -36.7801758 86.21903804 -35.421875 89.546875 C-33.63113935 91.68895235 -33.63113935 91.68895235 -30.671875 93.484375 C-26.50320016 93.40717732 -24.35259052 93.07376208 -21.16796875 90.31640625 C-10.89671697 78.66279508 -6.82880898 61.09884607 -7.3515625 45.88671875 C-8.48424429 33.85542806 -11.72402893 22.22116743 -18.484375 12.109375 C-20.66776224 8.79641202 -21.42282685 6.52074121 -20.671875 2.484375 C-16.48262361 -3.52069525 -6.24318319 -0.87670232 0 0 Z " fill="#FCCD58" transform="translate(244.671875,193.515625)"/>
<path d="M0 0 C1.3096875 -0.01417969 2.619375 -0.02835937 3.96875 -0.04296875 C9.18422877 0.29742201 9.18422877 0.29742201 11.5 2.1875 C12.72377156 5.28949486 12.64021539 6.7856632 11.5390625 9.94140625 C11.07242188 10.86824219 10.60578125 11.79507813 10.125 12.75 C6.11806549 20.81983178 4.740907 29.74431054 7.171875 38.6484375 C7.44515625 39.34195313 7.7184375 40.03546875 8 40.75 C10.4218128 46.99082529 10.97937462 54.33990841 8.55078125 60.65625 C5.41715524 65.95474697 1.18965264 69.77680337 -4.5 72.1875 C-11.62866768 73.13946494 -17.63380558 72.44289513 -23.5 68.1875 C-30.45281779 62.55779306 -35.89323606 55.1599244 -37.5 46.1875 C-38.49058345 32.82877464 -37.2118369 22.5490977 -28.4375 11.8125 C-20.56643997 3.61127806 -11.13698353 0.05480799 0 0 Z " fill="#F85D85" transform="translate(77.5,107.8125)"/>
<path d="M0 0 C7.15129696 1.87150963 13.49405457 4.49786342 20 8 C19.01 9.485 19.01 9.485 18 11 C13.50496316 10.17799095 10.21762684 7.72635885 6.4375 5.27734375 C3.86815303 3.69055593 3.86815303 3.69055593 0 4 C0 2.68 0 1.36 0 0 Z " fill="#FE7491" transform="translate(40,147)"/>
<path d="M0 0 C1.14926266 0.95421808 2.29430541 1.91352045 3.4375 2.875 C4.07558594 3.40867188 4.71367187 3.94234375 5.37109375 4.4921875 C7 6 7 6 8 8 C4.82461668 7.65978036 3.97723135 6.97533396 1.75 4.5625 C0 2 0 2 0 0 Z " fill="#CA1B4B" transform="translate(324,248)"/>
</svg>
